<svg xmlns="http://www.w3.org/2000/svg" width="1024" height="1024" viewBox="0 0 100 100">
  <defs>
    <linearGradient id="gVG" x1="0" y1="0" x2="1" y2="0">
      <stop offset="0" stop-color="#2fc452"/>
      <stop offset="1" stop-color="#34d399"/>
    </linearGradient>
    <linearGradient id="gVR" x1="0" y1="0" x2="1" y2="0">
      <stop offset="0" stop-color="#ff3b30"/>
      <stop offset="1" stop-color="#ff6a3d"/>
    </linearGradient>
    <linearGradient id="gVI" x1="0" y1="0" x2="1" y2="0">
      <stop offset="0" stop-color="#5856d6"/>
      <stop offset="1" stop-color="#7b61ff"/>
    </linearGradient>
  </defs>
  <g transform="translate(15 20) scale(0.5625)">
    <rect x="1" y="11.5" width="30" height="9" rx="4.5" fill="#28c24c"/>
    <rect x="11.5" y="1" width="9" height="30" rx="4.5" fill="#28c24c"/>
  </g>
  <rect x="40" y="25" width="27.4" height="8" rx="4" fill="url(#gVG)"/>
  <g transform="translate(15 41) scale(0.5625)">
    <rect x="1" y="11.5" width="30" height="9" rx="4.5" fill="#ff3b30"/>
  </g>
  <rect x="40" y="46" width="45" height="8" rx="4" fill="url(#gVR)"/>
  <g transform="translate(15 62) scale(0.5625)">
    <path d="M9.5 10.5 a6.5 6.5 0 1 1 9 6 c-1.8 0.9 -2.5 2.2 -2.5 4.2 v0.6" fill="none" stroke="#5856d6" stroke-width="7.2" stroke-linecap="round" stroke-linejoin="round"/>
    <circle cx="16" cy="28" r="4.23" fill="#5856d6"/>
  </g>
  <rect x="40" y="67" width="37.2" height="8" rx="4" fill="url(#gVI)"/>
</svg>
